<mxfile host="app.diagrams.net" modified="2023-11-20T12:47:20.839Z" agent="Mozilla/5.0 (Windows NT 10.0; Win64; x64) AppleWebKit/537.36 (KHTML, like Gecko) Chrome/119.0.0.0 Safari/537.36 Edg/119.0.0.0" version="22.1.3" etag="uG105ATTUIJtE8ToO55b" type="device">
  <diagram id="du4ULygS2lbdnsvPyhHk" name="第 1 页">
    <mxGraphModel dx="1339" dy="793" grid="1" gridSize="10" guides="1" tooltips="1" connect="1" arrows="1" fold="1" page="1" pageScale="1" pageWidth="827" pageHeight="1169" background="#ffffff" math="0" shadow="0">
      <root>
        <mxCell id="0" />
        <mxCell id="1" parent="0" />
        <mxCell id="CQ-Tmd0y7J60yZhEoIER-1" value="顾客" style="shape=umlLifeline;perimeter=lifelinePerimeter;whiteSpace=wrap;html=1;container=1;dropTarget=0;collapsible=0;recursiveResize=0;outlineConnect=0;portConstraint=eastwest;newEdgeStyle={&quot;curved&quot;:0,&quot;rounded&quot;:0};" vertex="1" parent="1">
          <mxGeometry x="130" y="500" width="100" height="300" as="geometry" />
        </mxCell>
        <mxCell id="CQ-Tmd0y7J60yZhEoIER-2" value="" style="html=1;points=[[0,0,0,0,5],[0,1,0,0,-5],[1,0,0,0,5],[1,1,0,0,-5]];perimeter=orthogonalPerimeter;outlineConnect=0;targetShapes=umlLifeline;portConstraint=eastwest;newEdgeStyle={&quot;curved&quot;:0,&quot;rounded&quot;:0};" vertex="1" parent="CQ-Tmd0y7J60yZhEoIER-1">
          <mxGeometry x="45" y="90" width="10" height="100" as="geometry" />
        </mxCell>
        <mxCell id="CQ-Tmd0y7J60yZhEoIER-3" value="修改预约（）" style="html=1;verticalAlign=bottom;startArrow=oval;startFill=1;endArrow=block;startSize=8;curved=0;rounded=0;" edge="1" parent="1">
          <mxGeometry width="60" relative="1" as="geometry">
            <mxPoint x="190" y="590" as="sourcePoint" />
            <mxPoint x="290" y="590" as="targetPoint" />
          </mxGeometry>
        </mxCell>
        <mxCell id="CQ-Tmd0y7J60yZhEoIER-4" value="预约系统" style="shape=umlLifeline;perimeter=lifelinePerimeter;whiteSpace=wrap;html=1;container=1;dropTarget=0;collapsible=0;recursiveResize=0;outlineConnect=0;portConstraint=eastwest;newEdgeStyle={&quot;curved&quot;:0,&quot;rounded&quot;:0};" vertex="1" parent="1">
          <mxGeometry x="240" y="500" width="100" height="300" as="geometry" />
        </mxCell>
        <mxCell id="CQ-Tmd0y7J60yZhEoIER-6" value="" style="html=1;points=[[0,0,0,0,5],[0,1,0,0,-5],[1,0,0,0,5],[1,1,0,0,-5]];perimeter=orthogonalPerimeter;outlineConnect=0;targetShapes=umlLifeline;portConstraint=eastwest;newEdgeStyle={&quot;curved&quot;:0,&quot;rounded&quot;:0};" vertex="1" parent="CQ-Tmd0y7J60yZhEoIER-4">
          <mxGeometry x="45" y="90" width="10" height="100" as="geometry" />
        </mxCell>
        <mxCell id="CQ-Tmd0y7J60yZhEoIER-5" value="更新预约信息（）" style="html=1;verticalAlign=bottom;startArrow=oval;startFill=1;endArrow=block;startSize=8;curved=0;rounded=0;" edge="1" parent="1">
          <mxGeometry width="60" relative="1" as="geometry">
            <mxPoint x="300" y="630" as="sourcePoint" />
            <mxPoint x="410" y="630" as="targetPoint" />
          </mxGeometry>
        </mxCell>
        <mxCell id="CQ-Tmd0y7J60yZhEoIER-7" value="订单" style="shape=umlLifeline;perimeter=lifelinePerimeter;whiteSpace=wrap;html=1;container=1;dropTarget=0;collapsible=0;recursiveResize=0;outlineConnect=0;portConstraint=eastwest;newEdgeStyle={&quot;curved&quot;:0,&quot;rounded&quot;:0};" vertex="1" parent="1">
          <mxGeometry x="360" y="500" width="100" height="300" as="geometry" />
        </mxCell>
        <mxCell id="CQ-Tmd0y7J60yZhEoIER-9" value="" style="html=1;points=[[0,0,0,0,5],[0,1,0,0,-5],[1,0,0,0,5],[1,1,0,0,-5]];perimeter=orthogonalPerimeter;outlineConnect=0;targetShapes=umlLifeline;portConstraint=eastwest;newEdgeStyle={&quot;curved&quot;:0,&quot;rounded&quot;:0};" vertex="1" parent="CQ-Tmd0y7J60yZhEoIER-7">
          <mxGeometry x="44" y="130" width="10" height="50" as="geometry" />
        </mxCell>
        <mxCell id="CQ-Tmd0y7J60yZhEoIER-8" value="更新成功" style="html=1;verticalAlign=bottom;endArrow=open;dashed=1;endSize=8;curved=0;rounded=0;" edge="1" parent="1" target="CQ-Tmd0y7J60yZhEoIER-6">
          <mxGeometry relative="1" as="geometry">
            <mxPoint x="400" y="675" as="sourcePoint" />
            <mxPoint x="300" y="680" as="targetPoint" />
          </mxGeometry>
        </mxCell>
        <mxCell id="CQ-Tmd0y7J60yZhEoIER-10" value="修改成功" style="html=1;verticalAlign=bottom;endArrow=open;dashed=1;endSize=8;curved=0;rounded=0;" edge="1" parent="1" target="CQ-Tmd0y7J60yZhEoIER-2">
          <mxGeometry relative="1" as="geometry">
            <mxPoint x="280" y="680" as="sourcePoint" />
            <mxPoint x="190" y="690" as="targetPoint" />
          </mxGeometry>
        </mxCell>
        <mxCell id="CQ-Tmd0y7J60yZhEoIER-11" value="修改订单" style="text;align=center;fontStyle=1;verticalAlign=middle;spacingLeft=3;spacingRight=3;strokeColor=none;rotatable=0;points=[[0,0.5],[1,0.5]];portConstraint=eastwest;html=1;" vertex="1" parent="1">
          <mxGeometry x="60" y="460" width="80" height="26" as="geometry" />
        </mxCell>
        <mxCell id="CQ-Tmd0y7J60yZhEoIER-12" value="车辆" style="shape=umlLifeline;perimeter=lifelinePerimeter;whiteSpace=wrap;html=1;container=1;dropTarget=0;collapsible=0;recursiveResize=0;outlineConnect=0;portConstraint=eastwest;newEdgeStyle={&quot;curved&quot;:0,&quot;rounded&quot;:0};" vertex="1" parent="1">
          <mxGeometry x="480" y="500" width="100" height="300" as="geometry" />
        </mxCell>
        <mxCell id="CQ-Tmd0y7J60yZhEoIER-13" value="" style="html=1;points=[[0,0,0,0,5],[0,1,0,0,-5],[1,0,0,0,5],[1,1,0,0,-5]];perimeter=orthogonalPerimeter;outlineConnect=0;targetShapes=umlLifeline;portConstraint=eastwest;newEdgeStyle={&quot;curved&quot;:0,&quot;rounded&quot;:0};" vertex="1" parent="CQ-Tmd0y7J60yZhEoIER-12">
          <mxGeometry x="45" y="150" width="10" height="30" as="geometry" />
        </mxCell>
        <mxCell id="CQ-Tmd0y7J60yZhEoIER-14" value="修改车辆信息（）" style="html=1;verticalAlign=bottom;startArrow=oval;startFill=1;endArrow=block;startSize=8;curved=0;rounded=0;" edge="1" parent="1" target="CQ-Tmd0y7J60yZhEoIER-12">
          <mxGeometry width="60" relative="1" as="geometry">
            <mxPoint x="410" y="650" as="sourcePoint" />
            <mxPoint x="470" y="650" as="targetPoint" />
          </mxGeometry>
        </mxCell>
        <mxCell id="CQ-Tmd0y7J60yZhEoIER-15" value="成功修改" style="html=1;verticalAlign=bottom;endArrow=open;dashed=1;endSize=8;curved=0;rounded=0;" edge="1" parent="1" source="CQ-Tmd0y7J60yZhEoIER-12">
          <mxGeometry relative="1" as="geometry">
            <mxPoint x="490" y="680" as="sourcePoint" />
            <mxPoint x="410" y="680" as="targetPoint" />
          </mxGeometry>
        </mxCell>
      </root>
    </mxGraphModel>
  </diagram>
</mxfile>
